<svg width="279" height="76" viewBox="0 0 279 76" fill="none" xmlns="http://www.w3.org/2000/svg">
<path d="M109.318 21.2979L109.299 13.8145L105.668 19.906H103.891L100.262 13.9749V21.2979H96.5889V7.17627H99.8777L104.839 15.3269L109.682 7.17627H112.971L113.011 21.2979H109.318Z" fill="#15396B"/>
<path d="M119.415 20.6321C118.224 19.9998 117.289 19.124 116.61 18.008C115.931 16.8926 115.59 15.6342 115.59 14.2354C115.59 12.8378 115.931 11.5801 116.61 10.464C117.289 9.34675 118.223 8.47289 119.415 7.84058C120.605 7.21015 121.946 6.89307 123.439 6.89307C124.933 6.89307 126.273 7.21015 127.463 7.84058C128.654 8.47289 129.589 9.34675 130.268 10.464C130.948 11.5801 131.288 12.8378 131.288 14.2354C131.288 15.6342 130.948 16.8926 130.268 18.008C129.589 19.124 128.655 19.9991 127.463 20.6321C126.273 21.2619 124.933 21.5783 123.439 21.5783C121.946 21.5783 120.605 21.2619 119.415 20.6321ZM125.376 17.7664C125.954 17.4306 126.411 16.9569 126.748 16.3445C127.084 15.7316 127.252 15.0287 127.252 14.2354C127.252 13.4439 127.084 12.7411 126.748 12.1263C126.411 11.5164 125.954 11.0402 125.376 10.7056C124.798 10.3698 124.152 10.2006 123.439 10.2006C122.726 10.2006 122.08 10.3698 121.503 10.7056C120.924 11.0408 120.467 11.5171 120.131 12.1263C119.793 12.7411 119.626 13.4439 119.626 14.2354C119.626 15.0287 119.793 15.7309 120.131 16.3445C120.467 16.9562 120.924 17.4306 121.503 17.7664C122.08 18.1022 122.726 18.2708 123.439 18.2708C124.152 18.2708 124.798 18.1022 125.376 17.7664Z" fill="#15396B"/>
<path d="M109.318 46.641L109.299 39.1576L105.668 45.2503H103.891L100.262 39.3187V46.641H96.5889V32.52H99.8777L104.839 40.6682L109.682 32.52H112.971L113.011 46.641H109.318Z" fill="#15396B"/>
<path d="M127.815 43.5544V46.6404H116.477V32.52H127.553V35.606H120.431V37.986H126.705V40.9734H120.431V43.5544H127.815Z" fill="#15396B"/>
<path d="M213.553 32.52V46.641H209.559V41.1357H204.112V46.641H200.118V32.52H204.112V37.8256H209.559V32.52H213.553Z" fill="#15396B"/>
<path d="M219.978 45.9834C218.8 45.3593 217.875 44.4885 217.202 43.3731C216.53 42.2552 216.196 40.9931 216.196 39.5793C216.196 38.1661 216.53 36.9028 217.202 35.7855C217.875 34.6707 218.8 33.7993 219.978 33.1751C221.154 32.5466 222.483 32.2363 223.963 32.2363C225.251 32.2363 226.416 32.4642 227.452 32.9229C228.488 33.378 229.349 34.0384 230.035 34.8991L227.493 37.1986C226.578 36.0957 225.467 35.5445 224.163 35.5445C223.396 35.5445 222.715 35.7137 222.117 36.0482C221.518 36.3853 221.052 36.8603 220.725 37.4714C220.395 38.0837 220.231 38.7878 220.231 39.5799C220.231 40.3726 220.395 41.0755 220.725 41.6884C221.052 42.2995 221.519 42.7751 222.117 43.1103C222.715 43.4455 223.396 43.614 224.163 43.614C225.467 43.614 226.578 43.0622 227.493 41.9606L230.035 44.2601C229.349 45.1227 228.488 45.78 227.452 46.2375C226.416 46.6938 225.251 46.9235 223.963 46.9235C222.483 46.9222 221.154 46.6095 219.978 45.9834Z" fill="#15396B"/>
<path d="M237.959 41.2343H236.144V46.641H232.171V32.52H236.144V38.006H238.061L241.429 32.52H245.627L241.209 39.3374L245.666 46.641H241.169L237.959 41.2343Z" fill="#15396B"/>
<path d="M125.595 68.8978V71.9844H114.257V57.8628H125.331V60.95H118.21V63.3301H124.485V66.3149H118.21V68.8972L125.595 68.8978Z" fill="#15396B"/>
<path d="M141.916 57.8628V71.9844H137.922V66.4772H132.474V71.9844H128.481V57.8628H132.474V63.1684H137.922V57.8628H141.916Z" fill="#15396B"/>
<path d="M156.701 61.0299H152.383V71.9844H148.449V61.0299H144.112V57.8628H156.701V61.0299Z" fill="#15396B"/>
<path d="M168.697 58.4982C169.639 58.9233 170.365 59.5275 170.876 60.3152C171.387 61.1017 171.643 62.0255 171.643 63.0866C171.643 64.1509 171.387 65.0734 170.876 65.8524C170.365 66.6326 169.639 67.2337 168.697 67.6582C167.755 68.0826 166.647 68.2936 165.368 68.2936H162.907V71.9851H158.913V57.8628H165.369C166.647 57.8628 167.756 58.075 168.697 58.4982ZM166.983 64.6128C167.399 64.2551 167.607 63.747 167.607 63.0872C167.607 62.4294 167.399 61.9188 166.983 61.5542C166.566 61.191 165.946 61.01 165.126 61.01H162.906V65.1458H165.126C165.946 65.1452 166.566 64.9673 166.983 64.6128Z" fill="#15396B"/>
<path d="M141.497 0C140.105 0 138.951 1.05488 138.79 2.40562H138.77V4.6502H142.634C144.023 4.6502 145.178 3.59657 145.34 2.24458L145.358 1.92375V0H141.497Z" fill="#15396B"/>
<path d="M109.883 68.8185V57.8628H105.949V68.8185H100.524V57.8628H96.5889V69.6306L96.5926 69.6337C96.5926 69.6468 96.5889 69.655 96.5889 69.6668C96.5889 70.9545 97.6331 71.9969 98.919 71.9969C98.9645 71.9969 108.168 71.9969 108.168 71.9969V74.8707H111.821V68.8192L109.883 68.8185Z" fill="#15396B"/>
<path d="M178.74 43.4733V32.52H174.807V43.4739H169.381V32.52H165.446V44.2872L165.449 44.2897C165.449 44.3028 165.446 44.3122 165.446 44.324C165.446 45.6117 166.49 46.6573 167.777 46.6573C167.821 46.6573 177.025 46.6573 177.025 46.6573V49.5285H180.678V43.4745H178.74V43.4733Z" fill="#15396B"/>
<path d="M272.397 25.3433C271.006 25.3433 269.851 26.3975 269.69 27.7483H269.671V29.9928H273.535C274.924 29.9928 276.079 28.9392 276.24 27.5885L276.26 27.2664V25.3433H272.397Z" fill="#15396B"/>
<path d="M144.092 43.4733V32.52H132.713L132.552 36.8781C132.471 39.0016 132.303 40.6438 131.917 41.7605C131.81 42.0689 131.599 42.5844 131.225 42.9552C130.85 43.3278 130.312 43.5544 130.286 43.5707C129.903 43.7972 129.647 44.2129 129.647 44.6898V49.4861H133.319V46.6404H142.357V49.4861H146.008V43.4733H144.092ZM140.158 43.4733H134.811C135.201 42.9071 135.49 42.1019 135.68 41.0533C135.866 40.0034 135.989 38.7269 136.042 37.2189L136.103 35.6853H140.158V43.4733Z" fill="#15396B"/>
<path d="M133.913 7.17627H137.848V15.4667L143.679 7.17627H147.431V21.2992H143.496V13.0268L137.686 21.2992H133.913V7.17627Z" fill="#15396B"/>
<path d="M148.434 32.52H152.37V40.8111L158.2 32.52H161.952V46.6423H158.018V38.3705L152.207 46.6423H148.434V32.52H148.434Z" fill="#15396B"/>
<path d="M183.114 32.52H187.05V40.8111L192.88 32.52H196.632V46.6423H192.699V38.3705L186.888 46.6423H183.114V32.52Z" fill="#15396B"/>
<path d="M247.81 32.52H251.743V40.8111L257.573 32.52H261.326V46.6423H257.392V38.3705L251.582 46.6423H247.81V32.52Z" fill="#15396B"/>
<path d="M264.807 32.52H268.74V40.8111L274.571 32.52H278.323V46.6423H274.389V38.3705L268.579 46.6423H264.807V32.52Z" fill="#15396B"/>
<path d="M74.6947 0.371582H58.0107V17.0543H74.6947V0.371582Z" fill="#15396B"/>
<path d="M58.0114 29.9194V42.1604C58.0114 45.7114 55.1308 48.5926 51.5811 48.5926C48.0263 48.5926 45.145 45.712 45.145 42.1604V29.9194H32.9041C29.3531 29.9194 26.4712 27.04 26.4712 23.4878C26.4712 19.9324 29.3531 17.0543 32.9041 17.0543H45.145V0.371582H30.7538C13.8395 0.371582 0 14.2105 0 31.126V75.0663H43.9416C60.8559 75.0663 74.6954 61.2287 74.6954 44.3126V29.9194H58.0114Z" fill="#15396B"/>
</svg>
