<svg width="30" height="20" viewBox="0 0 30 20" fill="none" xmlns="http://www.w3.org/2000/svg">
<path d="M16.2293 19.3249C6.11677 19.3249 0.348733 12.2547 0.108398 0.489746H5.17392C5.3403 9.1249 9.07473 12.7826 12.0327 13.5367V0.489746H16.8024V7.93709C19.7234 7.61657 22.7923 4.22285 23.8276 0.489746H28.5973C28.2072 2.42584 27.4295 4.25901 26.313 5.87459C25.1964 7.49018 23.765 8.85342 22.1083 9.87906C23.9576 10.8162 25.591 12.1427 26.9008 13.7709C28.2105 15.3991 29.1668 17.2921 29.7065 19.3249H24.4562C23.9717 17.5593 22.9869 15.9787 21.6254 14.7814C20.2639 13.584 18.5862 12.8231 16.8024 12.594V19.3249H16.2293Z" fill="#2AD4FC"/>
</svg>
