<svg width="29" height="29" viewBox="0 0 29 29" fill="none" xmlns="http://www.w3.org/2000/svg">
<path d="M24.2022 4.22859C21.5443 1.5799 18.0004 0.108398 14.2596 0.108398C6.48269 0.108398 0.182425 6.38679 0.182425 14.1367C0.182425 16.5892 0.871518 19.0417 2.05282 21.1018L0.0839844 28.3612L7.56556 26.3992C9.63283 27.4783 11.897 28.0669 14.2596 28.0669C22.0365 28.0669 28.3368 21.7885 28.3368 14.0386C28.2383 10.4089 26.8601 6.87729 24.2022 4.22859ZM21.0521 19.1398C20.7567 19.9246 19.3786 20.7094 18.6895 20.8075C18.0988 20.9056 17.3113 20.9056 16.5238 20.7094C16.0315 20.5132 15.3425 20.317 14.5549 19.9246C11.011 18.4531 8.74686 14.9215 8.54998 14.6272C8.35309 14.431 7.07335 12.7633 7.07335 10.9975C7.07335 9.23169 7.95932 8.44689 8.25465 8.05449C8.54997 7.66209 8.94374 7.66209 9.23906 7.66209C9.43595 7.66209 9.73127 7.66209 9.92815 7.66209C10.125 7.66209 10.4204 7.56399 10.7157 8.25069C11.011 8.93739 11.7001 10.7032 11.7985 10.8013C11.897 10.9975 11.897 11.1937 11.7985 11.3899C11.7001 11.5861 11.6017 11.7823 11.4048 11.9785C11.2079 12.1747 11.011 12.469 10.9126 12.5671C10.7157 12.7633 10.5188 12.9595 10.7157 13.2538C10.9126 13.6462 11.6017 14.7253 12.6845 15.7063C14.0627 16.8835 15.1456 17.2759 15.5393 17.4721C15.9331 17.6683 16.13 17.5702 16.3269 17.374C16.5238 17.1778 17.2128 16.393 17.4097 16.0006C17.6066 15.6082 17.9019 15.7063 18.1973 15.8044C18.4926 15.9025 20.2645 16.7854 20.5599 16.9816C20.9536 17.1778 21.1505 17.2759 21.249 17.374C21.3474 17.6683 21.3474 18.355 21.0521 19.1398Z" fill="white"/>
</svg>
