<svg width="31" height="21" viewBox="0 0 31 21" fill="none" xmlns="http://www.w3.org/2000/svg">
<path fill-rule="evenodd" clip-rule="evenodd" d="M3.59662 20.4012C3.06888 20.2451 2.58736 19.9673 2.19268 19.5914C1.79801 19.2154 1.50176 18.7523 1.32894 18.2411C0.341405 15.599 0.0488009 4.56635 1.95072 2.38839C2.58372 1.67988 3.47742 1.24367 4.43786 1.17444C9.54013 0.638875 25.3042 0.710284 27.1146 1.35296C27.6239 1.51423 28.0891 1.78591 28.4755 2.14763C28.8619 2.50935 29.1594 2.95175 29.3457 3.44166C30.4247 6.17304 30.4613 16.0988 29.1994 18.7231C28.8647 19.4062 28.3043 19.9595 27.6084 20.2941C25.7065 21.2224 6.12033 21.2046 3.59662 20.4012ZM11.6981 15.2241L20.8419 10.5825L11.6981 5.90526V15.2241Z" fill="white"/>
</svg>
