<svg width="201" height="48" viewBox="0 0 201 48" fill="none" xmlns="http://www.w3.org/2000/svg">
<path fill-rule="evenodd" clip-rule="evenodd" d="M78.6449 13.8287L78.6312 9.1541L76.0185 12.9604H74.7412L72.1284 9.2552V13.8287H69.4883V5.00586H71.8545L75.4226 10.0997L78.9052 5.00586H81.2714L81.3022 13.8287H78.6449Z" fill="#15396B"/>
<path fill-rule="evenodd" clip-rule="evenodd" d="M90.1908 11.6229C90.6051 11.4147 90.9339 11.1173 91.177 10.7367C91.4201 10.3531 91.54 9.91302 91.54 9.41939C91.54 8.92279 91.4201 8.48567 91.177 8.10207C90.9339 7.72144 90.6051 7.42408 90.1908 7.21295C89.7765 7.00479 89.3108 6.89774 88.7971 6.89774C88.2835 6.89774 87.8212 7.00479 87.4034 7.21295C86.9891 7.42408 86.6603 7.72144 86.4172 8.10207C86.1741 8.48567 86.0542 8.92279 86.0542 9.41939C86.0542 9.91302 86.1741 10.3531 86.4172 10.7367C86.6603 11.1173 86.9891 11.4147 87.4034 11.6229C87.8212 11.834 88.2835 11.9381 88.7971 11.9381C89.3108 11.9381 89.7765 11.834 90.1908 11.6229ZM85.9035 13.413C85.0475 13.0205 84.3729 12.4733 83.8866 11.7745C83.3969 11.0787 83.1504 10.2936 83.1504 9.41939C83.1504 8.54514 83.3969 7.7601 83.8866 7.06129C84.3729 6.36546 85.0475 5.81831 85.9035 5.42281C86.7596 5.03029 87.7253 4.83105 88.7971 4.83105C89.8723 4.83105 90.8346 5.03029 91.6907 5.42281C92.5502 5.81831 93.2213 6.36546 93.711 7.06129C94.1973 7.7601 94.4438 8.54514 94.4438 9.41939C94.4438 10.2936 94.1973 11.0787 93.711 11.7745C93.2213 12.4733 92.5502 13.0205 91.6907 13.413C90.8346 13.8085 89.8723 14.0048 88.7971 14.0048C87.7253 14.0048 86.7596 13.8085 85.9035 13.413Z" fill="#15396B"/>
<path fill-rule="evenodd" clip-rule="evenodd" d="M78.6449 29.6587L78.6312 24.9841L76.0185 28.7904H74.7412L72.1284 25.0852V29.6587H69.4883V20.8389H71.8545L75.4226 25.9268L78.9052 20.8389H81.2714L81.3022 29.6587H78.6449Z" fill="#15396B"/>
<path fill-rule="evenodd" clip-rule="evenodd" d="M91.9536 27.7347V29.6616H83.7969V20.8418H91.7653V22.7687H86.6425V24.2555H91.1558V26.123H86.6425V27.7347H91.9536Z" fill="#15396B"/>
<path fill-rule="evenodd" clip-rule="evenodd" d="M153.626 20.8418V29.6616H150.753V26.2241H146.836V29.6616H143.963V20.8418H146.836V24.1544H150.753V20.8418H153.626Z" fill="#15396B"/>
<path fill-rule="evenodd" clip-rule="evenodd" d="M158.246 29.2529C157.397 28.8634 156.732 28.3192 156.246 27.6234C155.763 26.9246 155.523 26.1366 155.523 25.2534C155.523 24.3702 155.763 23.5822 156.246 22.8834C156.732 22.1875 157.397 21.6434 158.246 21.2538C159.092 20.8613 160.047 20.665 161.112 20.665C162.037 20.665 162.875 20.8078 163.622 21.0962C164.368 21.3787 164.985 21.7921 165.478 22.3303L163.649 23.7666C162.992 23.0767 162.194 22.7317 161.256 22.7317C160.704 22.7317 160.211 22.8388 159.783 23.0469C159.352 23.2581 159.016 23.5554 158.78 23.9361C158.544 24.3197 158.427 24.7598 158.427 25.2534C158.427 25.75 158.544 26.1871 158.78 26.5707C159.016 26.9513 159.352 27.2487 159.783 27.4598C160.215 27.668 160.704 27.775 161.256 27.775C162.194 27.775 162.992 27.4301 163.649 26.7402L165.478 28.1765C164.985 28.7147 164.368 29.1251 163.622 29.4135C162.875 29.696 162.037 29.8417 161.112 29.8417C160.047 29.8417 159.092 29.6455 158.246 29.2529Z" fill="#15396B"/>
<path fill-rule="evenodd" clip-rule="evenodd" d="M171.183 26.2806H169.878V29.6587H167.019V20.8389H169.878V24.2645H171.258L173.679 20.8389H176.699L173.521 25.0971L176.727 29.6587H173.491L171.183 26.2806Z" fill="#15396B"/>
<path fill-rule="evenodd" clip-rule="evenodd" d="M90.353 43.5658V45.4927H82.1963V36.6729H90.1613V38.5998H85.0419V40.0866H89.5552V41.9511H85.0419V43.5658H90.353Z" fill="#15396B"/>
<path fill-rule="evenodd" clip-rule="evenodd" d="M102.085 36.6729V45.4927H99.2123V42.0522H95.2949V45.4927H92.4219V36.6729H95.2949V39.9855H99.2123V36.6729H102.085Z" fill="#15396B"/>
<path fill-rule="evenodd" clip-rule="evenodd" d="M112.726 38.6503H109.62V45.4927H106.791V38.6503H103.672V36.6729H112.726V38.6503Z" fill="#15396B"/>
<path fill-rule="evenodd" clip-rule="evenodd" d="M120.126 40.8895C120.423 40.6635 120.574 40.3483 120.574 39.9349C120.574 39.5246 120.423 39.2064 120.126 38.9774C119.824 38.7514 119.379 38.6384 118.79 38.6384H117.194V41.2225H118.79C119.379 41.2225 119.824 41.1095 120.126 40.8895ZM121.358 37.0683C122.036 37.333 122.56 37.7107 122.927 38.2043C123.293 38.6949 123.478 39.2718 123.478 39.9349C123.478 40.601 123.293 41.175 122.927 41.6626C122.56 42.1503 122.036 42.525 121.358 42.7926C120.68 43.0573 119.882 43.1881 118.965 43.1881H117.194V45.4927H114.321V36.6729H118.965C119.882 36.6729 120.68 36.8037 121.358 37.0683Z" fill="#15396B"/>
<path fill-rule="evenodd" clip-rule="evenodd" d="M101.788 0.525391C100.788 0.525391 99.9563 1.18554 99.8399 2.02708H99.8262V3.43064H102.607C103.607 3.43064 104.439 2.77049 104.555 1.92598L104.565 1.72674V0.525391H101.788Z" fill="#15396B"/>
<path fill-rule="evenodd" clip-rule="evenodd" d="M79.049 43.5152V36.6729H76.2205V43.5152H72.3168V36.6729H69.4883V44.0237L69.4917 44.0267C69.4917 44.0326 69.4883 44.0386 69.4883 44.0445C69.4883 44.8504 70.2382 45.5016 71.1628 45.5016C71.197 45.5016 77.8162 45.5016 77.8162 45.5016V47.2977H80.4461V43.5152H79.049Z" fill="#15396B"/>
<path fill-rule="evenodd" clip-rule="evenodd" d="M128.586 27.6812V20.8389H125.757V27.6812H121.853V20.8389H119.021V28.1897H119.025C119.025 28.1986 119.021 28.2046 119.021 28.2105C119.021 29.0164 119.771 29.6676 120.699 29.6676C120.73 29.6676 127.353 29.6676 127.353 29.6676V31.4637H129.979V27.6812H128.586Z" fill="#15396B"/>
<path fill-rule="evenodd" clip-rule="evenodd" d="M195.96 16.3584C194.96 16.3584 194.128 17.0185 194.012 17.8631H193.998V19.2637H196.779C197.779 19.2637 198.607 18.6065 198.724 17.762L198.737 17.5598V16.3584H195.96Z" fill="#15396B"/>
<path fill-rule="evenodd" clip-rule="evenodd" d="M100.828 27.6842H96.983C97.2638 27.3303 97.4727 26.8277 97.6096 26.1706C97.7432 25.5164 97.8288 24.7194 97.8699 23.7768L97.911 22.8193H100.828V27.6842ZM103.66 27.6842V20.8418H95.4728L95.3564 23.5627C95.2982 24.8889 95.1784 25.9148 94.901 26.6136C94.8222 26.8069 94.6716 27.1281 94.4045 27.36C94.1339 27.592 93.747 27.7347 93.7264 27.7436C93.4525 27.8864 93.2676 28.1451 93.2676 28.4424V31.4399H95.9077V29.6616H102.411V31.4399H105.037V27.6842H103.66Z" fill="#15396B"/>
<path fill-rule="evenodd" clip-rule="evenodd" d="M96.3398 5.00586H99.1718V10.186L103.367 5.00586H106.065V13.8287H103.233V8.66047L99.0553 13.8287H96.3398V5.00586Z" fill="#15396B"/>
<path fill-rule="evenodd" clip-rule="evenodd" d="M106.787 20.8389H109.616V26.016L113.81 20.8389H116.509V29.6587H113.68V24.4935L109.499 29.6587H106.787V20.8389Z" fill="#15396B"/>
<path fill-rule="evenodd" clip-rule="evenodd" d="M131.729 20.8418H134.56V26.0189L138.755 20.8418H141.454V29.6616H138.625V24.4964L134.444 29.6616H131.729V20.8418Z" fill="#15396B"/>
<path fill-rule="evenodd" clip-rule="evenodd" d="M178.271 20.8418H181.099V26.0189L185.294 20.8418H187.996V29.6616H185.164V24.4964L180.986 29.6616H178.271V20.8418Z" fill="#15396B"/>
<path fill-rule="evenodd" clip-rule="evenodd" d="M190.504 20.8418H193.336V26.0189L197.527 20.8418H200.229V29.6616H197.397V24.4964L193.219 29.6616H190.504V20.8418Z" fill="#15396B"/>
<path fill-rule="evenodd" clip-rule="evenodd" d="M41.7334 11.1755H53.7357V0.755859H41.7334V11.1755Z" fill="#15396B"/>
<path fill-rule="evenodd" clip-rule="evenodd" d="M41.7322 19.2133V26.8615C41.7322 29.0798 39.6605 30.8789 37.106 30.8789C34.548 30.8789 32.4763 29.0798 32.4763 26.8615V19.2133H23.6689C21.1144 19.2133 19.0427 17.4142 19.0427 15.1959C19.0427 12.9746 21.1144 11.1755 23.6689 11.1755H32.4763V0.755859H22.1246C9.95451 0.755859 0 9.40025 0 19.9686V47.4183H31.6099C43.7766 47.4183 53.7345 38.7739 53.7345 28.2056V19.2133H41.7322Z" fill="#15396B"/>
</svg>
