<svg width="140" height="38" viewBox="0 0 140 38" fill="none" xmlns="http://www.w3.org/2000/svg">
<path fill-rule="evenodd" clip-rule="evenodd" d="M54.9883 10.7133L54.9787 6.94943L53.1519 10.0141H52.2588L50.4319 7.03084V10.7133H48.5859V3.60938H50.2404L52.7353 7.71082L55.1703 3.60938H56.8247L56.8463 10.7133H54.9883Z" fill="#15396B"/>
<path fill-rule="evenodd" clip-rule="evenodd" d="M63.0633 8.93734C63.353 8.76974 63.5829 8.53031 63.7529 8.22384C63.9229 7.91497 64.0067 7.56062 64.0067 7.16316C64.0067 6.76331 63.9229 6.41135 63.7529 6.10248C63.5829 5.79601 63.353 5.55658 63.0633 5.38659C62.7736 5.21899 62.448 5.13279 62.0888 5.13279C61.7297 5.13279 61.4065 5.21899 61.1144 5.38659C60.8246 5.55658 60.5948 5.79601 60.4248 6.10248C60.2548 6.41135 60.171 6.76331 60.171 7.16316C60.171 7.56062 60.2548 7.91497 60.4248 8.22384C60.5948 8.53031 60.8246 8.76974 61.1144 8.93734C61.4065 9.10734 61.7297 9.19114 62.0888 9.19114C62.448 9.19114 62.7736 9.10734 63.0633 8.93734ZM60.0656 10.3787C59.4671 10.0627 58.9954 9.62211 58.6554 9.05945C58.313 8.49918 58.1406 7.86709 58.1406 7.16316C58.1406 6.45924 58.313 5.82714 58.6554 5.26448C58.9954 4.70421 59.4671 4.26366 60.0656 3.94522C60.6642 3.62917 61.3394 3.46875 62.0888 3.46875C62.8406 3.46875 63.5134 3.62917 64.112 3.94522C64.713 4.26366 65.1823 4.70421 65.5247 5.26448C65.8647 5.82714 66.037 6.45924 66.037 7.16316C66.037 7.86709 65.8647 8.49918 65.5247 9.05945C65.1823 9.62211 64.713 10.0627 64.112 10.3787C63.5134 10.6972 62.8406 10.8552 62.0888 10.8552C61.3394 10.8552 60.6642 10.6972 60.0656 10.3787Z" fill="#15396B"/>
<path fill-rule="evenodd" clip-rule="evenodd" d="M54.9883 23.4609L54.9787 19.697L53.1519 22.7617H52.2588L50.4319 19.7784V23.4609H48.5859V16.3594H50.2404L52.7353 20.456L55.1703 16.3594H56.8247L56.8463 23.4609H54.9883Z" fill="#15396B"/>
<path fill-rule="evenodd" clip-rule="evenodd" d="M64.2892 21.9094V23.4609H58.5859V16.3594H64.1575V17.9109H60.5756V19.108H63.7313V20.6117H60.5756V21.9094H64.2892Z" fill="#15396B"/>
<path fill-rule="evenodd" clip-rule="evenodd" d="M107.413 16.3594V23.4609H105.404V20.6931H102.665V23.4609H100.656V16.3594H102.665V19.0266H105.404V16.3594H107.413Z" fill="#15396B"/>
<path fill-rule="evenodd" clip-rule="evenodd" d="M110.646 23.1296C110.052 22.8159 109.587 22.3778 109.247 21.8175C108.91 21.2549 108.742 20.6204 108.742 19.9093C108.742 19.1981 108.91 18.5637 109.247 18.001C109.587 17.4407 110.052 17.0026 110.646 16.6889C111.237 16.3729 111.905 16.2148 112.65 16.2148C113.296 16.2148 113.883 16.3298 114.405 16.562C114.927 16.7895 115.358 17.1223 115.702 17.5557L114.424 18.7121C113.964 18.1566 113.406 17.8789 112.75 17.8789C112.365 17.8789 112.02 17.9651 111.721 18.1327C111.419 18.3027 111.184 18.5421 111.019 18.8486C110.854 19.1574 110.773 19.5118 110.773 19.9093C110.773 20.3091 110.854 20.6611 111.019 20.9699C111.184 21.2764 111.419 21.5158 111.721 21.6858C112.022 21.8534 112.365 21.9396 112.75 21.9396C113.406 21.9396 113.964 21.6619 114.424 21.1064L115.702 22.2629C115.358 22.6962 114.927 23.0266 114.405 23.2589C113.883 23.4863 113.296 23.6037 112.65 23.6037C111.905 23.6037 111.237 23.4456 110.646 23.1296Z" fill="#15396B"/>
<path fill-rule="evenodd" clip-rule="evenodd" d="M119.693 20.741H118.78V23.4609H116.781V16.3594H118.78V19.1176H119.745L121.438 16.3594H123.55L121.328 19.788L123.569 23.4609H121.306L119.693 20.741Z" fill="#15396B"/>
<path fill-rule="evenodd" clip-rule="evenodd" d="M63.172 34.6555V36.207H57.4688V29.1055H63.0379V30.657H59.4584V31.8541H62.6141V33.3554H59.4584V34.6555H63.172Z" fill="#15396B"/>
<path fill-rule="evenodd" clip-rule="evenodd" d="M71.3817 29.1055V36.207H69.3729V33.4368H66.6338V36.207H64.625V29.1055H66.6338V31.7727H69.3729V29.1055H71.3817Z" fill="#15396B"/>
<path fill-rule="evenodd" clip-rule="evenodd" d="M78.8227 30.6977H76.6511V36.207H74.6734V30.6977H72.4922V29.1055H78.8227V30.6977Z" fill="#15396B"/>
<path fill-rule="evenodd" clip-rule="evenodd" d="M83.9919 32.5006C84.2002 32.3186 84.3056 32.0648 84.3056 31.732C84.3056 31.4016 84.2002 31.1454 83.9919 30.9611C83.7812 30.7791 83.47 30.6881 83.0582 30.6881H81.9424V32.7688H83.0582C83.47 32.7688 83.7812 32.6778 83.9919 32.5006ZM84.8539 29.4239C85.328 29.637 85.6943 29.9411 85.9505 30.3385C86.2067 30.7336 86.336 31.1981 86.336 31.732C86.336 32.2683 86.2067 32.7304 85.9505 33.1231C85.6943 33.5158 85.328 33.8175 84.8539 34.0329C84.3798 34.246 83.8219 34.3514 83.1803 34.3514H81.9424V36.207H79.9336V29.1055H83.1803C83.8219 29.1055 84.3798 29.2108 84.8539 29.4239Z" fill="#15396B"/>
<path fill-rule="evenodd" clip-rule="evenodd" d="M71.1727 0C70.4736 0 69.8918 0.531536 69.8104 1.20912H69.8008V2.33924H71.745C72.4441 2.33924 73.0259 1.8077 73.1073 1.12772L73.1145 0.967299V0H71.1727Z" fill="#15396B"/>
<path fill-rule="evenodd" clip-rule="evenodd" d="M55.2708 34.6148V29.1055H53.2931V34.6148H50.5636V29.1055H48.5859V35.0242L48.5883 35.0266C48.5883 35.0314 48.5859 35.0362 48.5859 35.041C48.5859 35.6898 49.1103 36.2142 49.7568 36.2142C49.7807 36.2142 54.4089 36.2142 54.4089 36.2142V37.6603H56.2477V34.6148H55.2708Z" fill="#15396B"/>
<path fill-rule="evenodd" clip-rule="evenodd" d="M89.906 21.8648V16.3555H87.9283V21.8648H85.1988V16.3555H83.2188V22.2742H83.2211C83.2211 22.2814 83.2188 22.2862 83.2188 22.2909C83.2188 22.9398 83.7431 23.4642 84.392 23.4642C84.4135 23.4642 89.0441 23.4642 89.0441 23.4642V24.9103H90.8805V21.8648H89.906Z" fill="#15396B"/>
<path fill-rule="evenodd" clip-rule="evenodd" d="M137.013 12.7461C136.313 12.7461 135.732 13.2776 135.65 13.9576H135.641V15.0853H137.585C138.284 15.0853 138.863 14.5562 138.945 13.8762L138.954 13.7134V12.7461H137.013Z" fill="#15396B"/>
<path fill-rule="evenodd" clip-rule="evenodd" d="M70.4976 21.8687H67.8088C68.0051 21.5837 68.1511 21.1791 68.2469 20.65C68.3403 20.1232 68.4002 19.4815 68.4289 18.7226L68.4576 17.9516H70.4976V21.8687ZM72.4777 21.8687V16.3594H66.7529L66.6715 18.5502C66.6308 19.618 66.547 20.4441 66.353 21.0067C66.298 21.1623 66.1926 21.4209 66.0058 21.6077C65.8167 21.7944 65.5461 21.9094 65.5318 21.9166C65.3402 22.0315 65.2109 22.2398 65.2109 22.4792V24.8927H67.057V23.4609H71.6037V24.8927H73.4402V21.8687H72.4777Z" fill="#15396B"/>
<path fill-rule="evenodd" clip-rule="evenodd" d="M67.3594 3.60938H69.3395V7.78025L72.2725 3.60938H74.1592V10.7133H72.1791V6.55197L69.2581 10.7133H67.3594V3.60938Z" fill="#15396B"/>
<path fill-rule="evenodd" clip-rule="evenodd" d="M74.6641 16.3555H76.6418V20.524L79.5748 16.3555H81.4615V23.457H79.4838V19.2981L76.5603 23.457H74.6641V16.3555Z" fill="#15396B"/>
<path fill-rule="evenodd" clip-rule="evenodd" d="M92.1016 16.3594H94.0817V20.5279L97.0147 16.3594H98.9014V23.4609H96.9237V19.302L94.0002 23.4609H92.1016V16.3594Z" fill="#15396B"/>
<path fill-rule="evenodd" clip-rule="evenodd" d="M124.648 16.3594H126.626V20.5279L129.559 16.3594H131.448V23.4609H129.468V19.302L126.547 23.4609H124.648V16.3594Z" fill="#15396B"/>
<path fill-rule="evenodd" clip-rule="evenodd" d="M133.199 16.3594H135.179V20.5279L138.11 16.3594H139.999V23.4609H138.019V19.302L135.098 23.4609H133.199V16.3594Z" fill="#15396B"/>
<path fill-rule="evenodd" clip-rule="evenodd" d="M29.1797 8.57714H37.5717V0.1875H29.1797V8.57714Z" fill="#15396B"/>
<path fill-rule="evenodd" clip-rule="evenodd" d="M29.1794 15.0489V21.2071C29.1794 22.9932 27.7308 24.4418 25.9447 24.4418C24.1561 24.4418 22.7076 22.9932 22.7076 21.2071V15.0489H16.5494C14.7633 15.0489 13.3147 13.6004 13.3147 11.8142C13.3147 10.0257 14.7633 8.57714 16.5494 8.57714H22.7076V0.1875H15.4696C6.96024 0.1875 0 7.14774 0 15.6571V37.7589H22.1018C30.6088 37.7589 37.5714 30.7987 37.5714 22.2893V15.0489H29.1794Z" fill="#15396B"/>
</svg>
