<svg width="223" height="60" viewBox="0 0 223 60" fill="none" xmlns="http://www.w3.org/2000/svg">
<path fill-rule="evenodd" clip-rule="evenodd" d="M87.383 17.0213L87.3678 11.0401L84.4648 15.9103H83.0456L80.1425 11.1695V17.0213H77.209V5.73242H79.8381L83.8027 12.2501L87.6722 5.73242H90.3013L90.3356 17.0213H87.383Z" fill="#15396B"/>
<path fill-rule="evenodd" clip-rule="evenodd" d="M100.212 14.199C100.673 13.9326 101.038 13.5521 101.308 13.0651C101.578 12.5743 101.711 12.0112 101.711 11.3796C101.711 10.7442 101.578 10.1849 101.308 9.69408C101.038 9.20706 100.673 8.82658 100.212 8.55644C99.752 8.2901 99.2345 8.15313 98.6638 8.15313C98.0931 8.15313 97.5794 8.2901 97.1152 8.55644C96.6548 8.82658 96.2896 9.20706 96.0194 9.69408C95.7493 10.1849 95.6161 10.7442 95.6161 11.3796C95.6161 12.0112 95.7493 12.5743 96.0194 13.0651C96.2896 13.5521 96.6548 13.9326 97.1152 14.199C97.5794 14.4691 98.0931 14.6023 98.6638 14.6023C99.2345 14.6023 99.752 14.4691 100.212 14.199ZM95.4487 16.4895C94.4975 15.9872 93.748 15.2871 93.2077 14.393C92.6636 13.5027 92.3896 12.4982 92.3896 11.3796C92.3896 10.261 92.6636 9.25652 93.2077 8.36239C93.748 7.47207 94.4975 6.77198 95.4487 6.26595C96.3999 5.76371 97.4729 5.50879 98.6638 5.50879C99.8585 5.50879 100.928 5.76371 101.879 6.26595C102.834 6.77198 103.58 7.47207 104.124 8.36239C104.664 9.25652 104.938 10.261 104.938 11.3796C104.938 12.4982 104.664 13.5027 104.124 14.393C103.58 15.2871 102.834 15.9872 101.879 16.4895C100.928 16.9955 99.8585 17.2466 98.6638 17.2466C97.4729 17.2466 96.3999 16.9955 95.4487 16.4895Z" fill="#15396B"/>
<path fill-rule="evenodd" clip-rule="evenodd" d="M87.383 37.2763L87.3678 31.2951L84.4648 36.1653H83.0456L80.1425 31.4245V37.2763H77.209V25.9912H79.8381L83.8027 32.5012L87.6722 25.9912H90.3013L90.3356 37.2763H87.383Z" fill="#15396B"/>
<path fill-rule="evenodd" clip-rule="evenodd" d="M102.17 34.8147V37.2802H93.1074V25.9951H101.961V28.4606H96.2692V30.363H101.284V32.7525H96.2692V34.8147H102.17Z" fill="#15396B"/>
<path fill-rule="evenodd" clip-rule="evenodd" d="M170.696 25.9951V37.2802H167.504V32.8818H163.151V37.2802H159.959V25.9951H163.151V30.2337H167.504V25.9951H170.696Z" fill="#15396B"/>
<path fill-rule="evenodd" clip-rule="evenodd" d="M175.829 36.7568C174.885 36.2584 174.147 35.5621 173.607 34.6718C173.07 33.7777 172.804 32.7694 172.804 31.6394C172.804 30.5093 173.07 29.5011 173.607 28.6069C174.147 27.7166 174.885 27.0203 175.829 26.5219C176.768 26.0197 177.83 25.7686 179.013 25.7686C180.04 25.7686 180.973 25.9512 181.802 26.3203C182.632 26.6817 183.316 27.2106 183.864 27.8992L181.833 29.737C181.102 28.8543 180.215 28.4129 179.173 28.4129C178.56 28.4129 178.012 28.5499 177.537 28.8162C177.057 29.0863 176.685 29.4668 176.422 29.9538C176.16 30.4447 176.03 31.0078 176.03 31.6394C176.03 32.2748 176.16 32.8341 176.422 33.3249C176.685 33.8119 177.057 34.1924 177.537 34.4625C178.016 34.7289 178.56 34.8658 179.173 34.8658C180.215 34.8658 181.102 34.4245 181.833 33.5418L183.864 35.3795C183.316 36.0682 182.632 36.5932 181.802 36.9623C180.973 37.3237 180.04 37.5102 179.013 37.5102C177.83 37.5102 176.768 37.2591 175.829 36.7568Z" fill="#15396B"/>
<path fill-rule="evenodd" clip-rule="evenodd" d="M190.203 32.954H188.753V37.2763H185.576V25.9912H188.753V30.3743H190.287L192.977 25.9912H196.332L192.801 31.4397L196.363 37.2763H192.767L190.203 32.954Z" fill="#15396B"/>
<path fill-rule="evenodd" clip-rule="evenodd" d="M100.392 55.0705V57.536H91.3291V46.251H100.179V48.7165H94.4909V50.6189H99.5056V53.0045H94.4909V55.0705H100.392Z" fill="#15396B"/>
<path fill-rule="evenodd" clip-rule="evenodd" d="M113.428 46.251V57.536H110.235V53.1339H105.883V57.536H102.69V46.251H105.883V50.4895H110.235V46.251H113.428Z" fill="#15396B"/>
<path fill-rule="evenodd" clip-rule="evenodd" d="M125.251 48.7812H121.8V57.536H118.658V48.7812H115.191V46.251H125.251V48.7812Z" fill="#15396B"/>
<path fill-rule="evenodd" clip-rule="evenodd" d="M133.473 51.6462C133.804 51.357 133.971 50.9537 133.971 50.4248C133.971 49.8998 133.804 49.4927 133.473 49.1997C133.138 48.9105 132.643 48.766 131.989 48.766H130.216V52.0723H131.989C132.643 52.0723 133.138 51.9277 133.473 51.6462ZM134.842 46.757C135.596 47.0956 136.178 47.5789 136.585 48.2105C136.992 48.8382 137.197 49.5764 137.197 50.4248C137.197 51.2771 136.992 52.0115 136.585 52.6354C136.178 53.2594 135.596 53.7388 134.842 54.0813C134.089 54.4199 133.202 54.5873 132.183 54.5873H130.216V57.536H127.023V46.251H132.183C133.202 46.251 134.089 46.4184 134.842 46.757Z" fill="#15396B"/>
<path fill-rule="evenodd" clip-rule="evenodd" d="M113.098 0C111.987 0 111.063 0.844667 110.933 1.92143H110.918V3.71729H114.007C115.118 3.71729 116.043 2.87263 116.172 1.79206L116.184 1.53714V0H113.098Z" fill="#15396B"/>
<path fill-rule="evenodd" clip-rule="evenodd" d="M87.832 55.0058V46.251H84.6892V55.0058H80.3518V46.251H77.209V55.6565L77.2128 55.6603C77.2128 55.6679 77.209 55.6755 77.209 55.6831C77.209 56.7142 78.0422 57.5474 79.0695 57.5474C79.1076 57.5474 86.4623 57.5474 86.4623 57.5474V59.8455H89.3844V55.0058H87.832Z" fill="#15396B"/>
<path fill-rule="evenodd" clip-rule="evenodd" d="M142.873 34.7461V25.9912H139.73V34.7461H135.393V25.9912H132.246V35.3967H132.25C132.25 35.4081 132.246 35.4157 132.246 35.4233C132.246 36.4544 133.079 37.2877 134.11 37.2877C134.145 37.2877 141.503 37.2877 141.503 37.2877V39.5858H144.421V34.7461H142.873Z" fill="#15396B"/>
<path fill-rule="evenodd" clip-rule="evenodd" d="M217.734 20.2588C216.623 20.2588 215.698 21.1035 215.569 22.184H215.554V23.9761H218.643C219.754 23.9761 220.675 23.1352 220.804 22.0547L220.82 21.7959V20.2588H217.734Z" fill="#15396B"/>
<path fill-rule="evenodd" clip-rule="evenodd" d="M112.032 34.75H107.759C108.071 34.2972 108.303 33.6542 108.455 32.8133C108.604 31.9763 108.699 30.9566 108.745 29.7505L108.79 28.5253H112.032V34.75ZM115.178 34.75V25.9951H106.081L105.952 29.4765C105.887 31.1735 105.754 32.4861 105.446 33.3802C105.358 33.6276 105.191 34.0385 104.894 34.3352C104.593 34.632 104.164 34.8147 104.141 34.8261C103.836 35.0087 103.631 35.3397 103.631 35.7202V39.5554H106.564V37.2802H113.79V39.5554H116.708V34.75H115.178Z" fill="#15396B"/>
<path fill-rule="evenodd" clip-rule="evenodd" d="M107.044 5.73242H110.191V12.3604L114.851 5.73242H117.85V17.0213H114.703V10.4085L110.061 17.0213H107.044V5.73242Z" fill="#15396B"/>
<path fill-rule="evenodd" clip-rule="evenodd" d="M118.652 25.9912H121.795V32.6154L126.456 25.9912H129.454V37.2763H126.311V30.6673L121.666 37.2763H118.652V25.9912Z" fill="#15396B"/>
<path fill-rule="evenodd" clip-rule="evenodd" d="M146.365 25.9951H149.512V32.6193L154.173 25.9951H157.171V37.2802H154.028V30.6712L149.382 37.2802H146.365V25.9951Z" fill="#15396B"/>
<path fill-rule="evenodd" clip-rule="evenodd" d="M198.078 25.9951H201.221V32.6193L205.882 25.9951H208.884V37.2802H205.737V30.6712L201.095 37.2802H198.078V25.9951Z" fill="#15396B"/>
<path fill-rule="evenodd" clip-rule="evenodd" d="M211.671 25.9951H214.817V32.6193L219.475 25.9951H222.477V37.2802H219.33V30.6712L214.688 37.2802H211.671V25.9951Z" fill="#15396B"/>
<path fill-rule="evenodd" clip-rule="evenodd" d="M46.3701 13.627H59.706V0.294922H46.3701V13.627Z" fill="#15396B"/>
<path fill-rule="evenodd" clip-rule="evenodd" d="M46.3692 23.9113V33.6973C46.3692 36.5357 44.0673 38.8376 41.2289 38.8376C38.3867 38.8376 36.0848 36.5357 36.0848 33.6973V23.9113H26.2988C23.4604 23.9113 21.1585 21.6094 21.1585 18.7711C21.1585 15.9289 23.4604 13.627 26.2988 13.627H36.0848V0.294922H24.5828C11.0606 0.294922 0 11.3555 0 24.8778V59.9999H35.1222C48.6406 59.9999 59.705 48.9394 59.705 35.4171V23.9113H46.3692Z" fill="#15396B"/>
</svg>
