<svg width="21" height="21" viewBox="0 0 21 21" fill="none" xmlns="http://www.w3.org/2000/svg">
<path d="M18.9322 14.692C18.1622 13.901 15.9738 12.4191 14.5394 12.4191C14.2072 12.4191 13.9171 12.493 13.6798 12.6459C12.9784 13.0941 12.4195 13.4422 12.1505 13.4422C12.0029 13.4422 11.8447 13.3104 11.4966 13.0098L11.4386 12.957C10.4736 12.1186 10.2679 11.9023 9.89349 11.5121L9.79856 11.4119C9.73001 11.3434 9.672 11.2801 9.61399 11.2221C9.28704 10.8846 9.04974 10.642 8.21126 9.69277L8.17434 9.65059C7.77356 9.19707 7.50989 8.90176 7.49407 8.68555C7.47825 8.47461 7.66282 8.13184 8.13216 7.49375C8.70169 6.72383 8.72278 5.77461 8.20071 4.67246C7.78411 3.80234 7.10384 2.96914 6.50266 2.23613L6.44993 2.17285C5.93313 1.54004 5.33196 1.22363 4.66223 1.22363C3.91868 1.22363 3.30169 1.62441 2.97473 1.83535C2.94837 1.85117 2.922 1.87227 2.89563 1.88809C2.16263 2.35215 1.63001 2.99023 1.42962 3.63887C1.12903 4.61445 0.928641 5.88008 2.36829 8.51152C3.61282 10.7896 4.74134 12.3189 6.53431 14.1594C8.22181 15.8891 8.97063 16.448 10.6476 17.6609C12.5144 19.0109 14.3074 19.7861 15.5624 19.7861C16.7279 19.7861 17.6454 19.7861 18.9533 18.2094C20.3243 16.5535 19.7548 15.541 18.9322 14.692ZM18.3257 17.6398C17.271 18.916 16.6646 18.916 15.5677 18.916C14.4972 18.916 12.8361 18.1777 11.1275 16.949C9.4927 15.7678 8.76497 15.2246 7.12493 13.5424C5.38997 11.7652 4.29837 10.2834 3.09602 8.08438C1.82513 5.75879 1.96751 4.74102 2.22591 3.90254C2.36302 3.4543 2.77434 2.97441 3.33333 2.62637C3.3597 2.61055 3.38606 2.58945 3.4177 2.57363C3.6972 2.39434 4.16126 2.09375 4.66751 2.09375C5.08938 2.09375 5.4638 2.30469 5.82239 2.74238L5.87513 2.80566C7.21985 4.45098 8.26927 5.90645 7.47825 6.98223C6.91927 7.73633 6.62395 8.24785 6.67141 8.7752C6.7136 9.28672 7.05638 9.67168 7.57317 10.2518L7.61009 10.2939C8.45911 11.2537 8.70169 11.5068 9.03919 11.8496C9.0972 11.9076 9.1552 11.9709 9.22376 12.0395L9.31868 12.1396C9.70891 12.5457 9.92513 12.7672 10.9165 13.6373L10.9745 13.69C11.3964 14.0592 11.7075 14.3281 12.1611 14.3281C12.6304 14.3281 13.1472 14.0328 14.1281 13.4053C14.2282 13.342 14.3706 13.3051 14.5499 13.3051C15.6943 13.3051 17.6665 14.6129 18.3574 15.3248C18.9902 15.9682 19.3066 16.4533 18.3257 17.6398Z" fill="#15396B" stroke="#15396B"/>
</svg>
