<svg width="21" height="21" viewBox="0 0 21 21" fill="none" xmlns="http://www.w3.org/2000/svg">
<path d="M18.9322 14.6925C18.1622 13.9015 15.9738 12.4196 14.5394 12.4196C14.2072 12.4196 13.9171 12.4935 13.6798 12.6464C12.9784 13.0946 12.4195 13.4427 12.1505 13.4427C12.0029 13.4427 11.8447 13.3108 11.4966 13.0103L11.4386 12.9575C10.4736 12.119 10.2679 11.9028 9.89349 11.5126L9.79856 11.4124C9.73001 11.3438 9.672 11.2806 9.61399 11.2226C9.28704 10.8851 9.04974 10.6425 8.21126 9.69326L8.17434 9.65107C7.77356 9.19756 7.50989 8.90225 7.49407 8.68604C7.47825 8.4751 7.66282 8.13232 8.13216 7.49424C8.70169 6.72432 8.72278 5.7751 8.20071 4.67295C7.78411 3.80283 7.10384 2.96963 6.50266 2.23662L6.44993 2.17334C5.93313 1.54053 5.33196 1.22412 4.66223 1.22412C3.91868 1.22412 3.30169 1.6249 2.97473 1.83584C2.94837 1.85166 2.922 1.87275 2.89563 1.88857C2.16263 2.35264 1.63001 2.99072 1.42962 3.63936C1.12903 4.61494 0.928641 5.88057 2.36829 8.51201C3.61282 10.7901 4.74134 12.3194 6.53431 14.1599C8.22181 15.8896 8.97063 16.4485 10.6476 17.6614C12.5144 19.0114 14.3074 19.7866 15.5624 19.7866C16.7279 19.7866 17.6454 19.7866 18.9533 18.2099C20.3243 16.554 19.7548 15.5415 18.9322 14.6925ZM18.3257 17.6403C17.271 18.9165 16.6646 18.9165 15.5677 18.9165C14.4972 18.9165 12.8361 18.1782 11.1275 16.9495C9.4927 15.7683 8.76497 15.2251 7.12493 13.5429C5.38997 11.7657 4.29837 10.2839 3.09602 8.08486C1.82513 5.75928 1.96751 4.7415 2.22591 3.90303C2.36302 3.45478 2.77434 2.9749 3.33333 2.62686C3.3597 2.61104 3.38606 2.58994 3.4177 2.57412C3.6972 2.39482 4.16126 2.09424 4.66751 2.09424C5.08938 2.09424 5.4638 2.30518 5.82239 2.74287L5.87513 2.80615C7.21985 4.45146 8.26927 5.90693 7.47825 6.98272C6.91927 7.73682 6.62395 8.24834 6.67141 8.77568C6.7136 9.28721 7.05638 9.67217 7.57317 10.2522L7.61009 10.2944C8.45911 11.2542 8.70169 11.5073 9.03919 11.8501C9.0972 11.9081 9.1552 11.9714 9.22376 12.0399L9.31868 12.1401C9.70891 12.5462 9.92513 12.7677 10.9165 13.6378L10.9745 13.6905C11.3964 14.0597 11.7075 14.3286 12.1611 14.3286C12.6304 14.3286 13.1472 14.0333 14.1281 13.4058C14.2282 13.3425 14.3706 13.3056 14.5499 13.3056C15.6943 13.3056 17.6665 14.6134 18.3574 15.3253C18.9902 15.9687 19.3066 16.4538 18.3257 17.6403Z" fill="#15396B" stroke="#15396B"/>
</svg>
