<svg width="153" height="64" viewBox="0 0 153 64" fill="none" xmlns="http://www.w3.org/2000/svg">
<path d="M0 0H153V53H7V63.5L0 53V0Z" fill="#04993C"/>
<path d="M48.22 31H41.72L40.48 34H37.16L43.4 20H46.6L52.86 34H49.46L48.22 31ZM47.2 28.54L44.98 23.18L42.76 28.54H47.2ZM60.1366 28.36H57.8966V34H54.6766V20H57.8966V25.66H60.2166L63.8966 20H67.3166L62.7366 26.76L67.4566 34H63.7766L60.1366 28.36ZM83.6544 31.36V36.96H80.6744V34H68.9744V20H72.1944V31.36H78.4344V20H81.6544V31.36H83.6544ZM85.7908 20H89.0108V29.12L95.6908 20H98.7308V34H95.5308V24.9L88.8508 34H85.7908V20ZM113.397 20V34H110.197V30.28H107.237L104.757 34H101.337L104.257 29.78C103.31 29.3933 102.583 28.8133 102.077 28.04C101.57 27.2533 101.317 26.3133 101.317 25.22C101.317 24.14 101.563 23.2133 102.057 22.44C102.55 21.6533 103.25 21.0533 104.157 20.64C105.063 20.2133 106.13 20 107.357 20H113.397ZM107.437 22.64C106.517 22.64 105.81 22.8533 105.317 23.28C104.837 23.7067 104.597 24.34 104.597 25.18C104.597 25.9933 104.83 26.62 105.297 27.06C105.763 27.5 106.45 27.72 107.357 27.72H110.197V22.64H107.437Z" fill="white"/>
</svg>
