<svg width="31" height="31" viewBox="0 0 31 31" fill="none" xmlns="http://www.w3.org/2000/svg">
<path fill-rule="evenodd" clip-rule="evenodd" d="M22.1772 8.0511C22.4931 7.91404 22.8589 8.06219 22.9942 8.38198L25.7904 14.988L25.7904 14.988C25.9287 15.3148 26 15.6666 26 16.022V16.61C26 16.6291 25.9991 16.6479 25.9975 16.6665C25.9992 16.7175 26 16.7686 26 16.8199C26 19.3715 23.9316 21.4399 21.38 21.4399C19.0153 21.4399 17.0655 19.6633 16.7927 17.372C15.9688 16.9308 15.0312 16.9308 14.2074 17.372C13.9345 19.6633 11.9847 21.4399 9.62 21.4399C7.06844 21.4399 5 19.3715 5 16.8199C5 16.7687 5.00083 16.7176 5.00249 16.6668C5.00084 16.6481 5 16.6291 5 16.61V16.022C5 15.6666 5.07131 15.3147 5.20962 14.988L8.00575 8.38199C8.14111 8.06219 8.50689 7.91404 8.82273 8.0511C9.13858 8.18815 9.28489 8.55851 9.14953 8.87831L7.5332 12.697C8.16002 12.3791 8.86909 12.2 9.62 12.2C11.8298 12.2 13.6773 13.7514 14.1325 15.8246C15.0211 15.4719 15.9789 15.4719 16.8675 15.8246C17.3227 13.7514 19.1702 12.1999 21.38 12.1999C22.1309 12.1999 22.84 12.3791 23.4668 12.697L21.8504 8.87831C21.7151 8.55851 21.8614 8.18815 22.1772 8.0511ZM18.02 16.8199C18.02 14.9643 19.5243 13.4599 21.38 13.4599C23.2357 13.4599 24.74 14.9643 24.74 16.8199C24.74 18.6756 23.2357 20.1799 21.38 20.1799C19.5243 20.1799 18.02 18.6756 18.02 16.8199ZM9.62 13.4599C7.76433 13.4599 6.26 14.9643 6.26 16.8199C6.26 18.6756 7.76433 20.18 9.62 20.18C11.4757 20.18 12.98 18.6756 12.98 16.8199C12.98 14.9643 11.4757 13.4599 9.62 13.4599Z" fill="#15396B"/>
<path d="M22.9942 8.38198L22.764 8.47943L22.764 8.47943L22.9942 8.38198ZM22.1772 8.0511L22.2768 8.28044L22.2768 8.28044L22.1772 8.0511ZM25.7904 14.988L25.5601 15.0854L25.5619 15.0895L25.7904 14.988ZM25.7904 14.988L26.0206 14.8905L26.0188 14.8865L25.7904 14.988ZM25.9975 16.6665L25.7485 16.6447C25.7476 16.6547 25.7473 16.6647 25.7476 16.6747L25.9975 16.6665ZM16.7927 17.372L17.0409 17.3425C17.0313 17.2614 16.9826 17.1902 16.9107 17.1516L16.7927 17.372ZM14.2074 17.372L14.0893 17.1516C14.0174 17.1901 13.9688 17.2614 13.9591 17.3424L14.2074 17.372ZM5.00249 16.6668L5.25236 16.6749C5.25269 16.6649 5.25241 16.6548 5.25152 16.6448L5.00249 16.6668ZM5.20962 14.988L5.43984 15.0855L5.43984 15.0855L5.20962 14.988ZM8.00575 8.38199L7.77552 8.28454L7.77552 8.28454L8.00575 8.38199ZM8.82273 8.0511L8.92225 7.82176L8.92225 7.82176L8.82273 8.0511ZM9.14953 8.87831L8.91931 8.78086L8.91931 8.78086L9.14953 8.87831ZM7.5332 12.697L7.30298 12.5995C7.26206 12.6962 7.28589 12.8081 7.36262 12.8797C7.43936 12.9514 7.55266 12.9674 7.64628 12.92L7.5332 12.697ZM14.1325 15.8246L13.8883 15.8782C13.904 15.9498 13.9504 16.0109 14.0152 16.0453C14.0799 16.0797 14.1566 16.084 14.2247 16.0569L14.1325 15.8246ZM16.8675 15.8246L16.7753 16.0569C16.8435 16.084 16.9201 16.0797 16.9848 16.0453C17.0496 16.0109 17.096 15.9498 17.1117 15.8782L16.8675 15.8246ZM23.4668 12.697L23.3537 12.9199C23.4473 12.9674 23.5606 12.9513 23.6374 12.8797C23.7141 12.8081 23.7379 12.6962 23.697 12.5995L23.4668 12.697ZM21.8504 8.87831L22.0807 8.78086L22.0807 8.78086L21.8504 8.87831ZM23.2245 8.28454C23.0357 7.83867 22.5229 7.62858 22.0777 7.82176L22.2768 8.28044C22.4633 8.19951 22.682 8.2857 22.764 8.47943L23.2245 8.28454ZM26.0206 14.8905L23.2245 8.28454L22.764 8.47943L25.5601 15.0854L26.0206 14.8905ZM26.0188 14.8865L26.0188 14.8864L25.5619 15.0895L25.5619 15.0896L26.0188 14.8865ZM26.25 16.022C26.25 15.6332 26.172 15.2482 26.0206 14.8906L25.5602 15.0855C25.6854 15.3813 25.75 15.7 25.75 16.022H26.25ZM26.25 16.61V16.022H25.75V16.61H26.25ZM26.2465 16.6884C26.2488 16.6625 26.25 16.6364 26.25 16.61H25.75C25.75 16.6218 25.7495 16.6333 25.7485 16.6447L26.2465 16.6884ZM26.25 16.8199C26.25 16.7659 26.2491 16.712 26.2474 16.6584L25.7476 16.6747C25.7492 16.7229 25.75 16.7713 25.75 16.8199H26.25ZM21.38 21.6899C24.0696 21.6899 26.25 19.5096 26.25 16.8199H25.75C25.75 19.2334 23.7935 21.1899 21.38 21.1899V21.6899ZM16.5444 17.4016C16.832 19.8171 18.8871 21.6899 21.38 21.6899V21.1899C19.1434 21.1899 17.299 19.5095 17.0409 17.3425L16.5444 17.4016ZM14.3254 17.5924C15.0755 17.1907 15.9245 17.1907 16.6746 17.5924L16.9107 17.1516C16.0131 16.6709 14.9869 16.6709 14.0893 17.1516L14.3254 17.5924ZM9.62 21.6899C12.1129 21.6899 14.168 19.8171 14.4556 17.4015L13.9591 17.3424C13.7011 19.5095 11.8566 21.1899 9.62 21.1899V21.6899ZM4.75 16.8199C4.75 19.5096 6.93037 21.6899 9.62 21.6899V21.1899C7.20651 21.1899 5.25 19.2334 5.25 16.8199H4.75ZM4.75262 16.6586C4.75088 16.7122 4.75 16.766 4.75 16.8199H5.25C5.25 16.7714 5.25079 16.7231 5.25236 16.6749L4.75262 16.6586ZM5.25152 16.6448C5.25052 16.6334 5.25 16.6218 5.25 16.61H4.75C4.75 16.6365 4.75117 16.6627 4.75346 16.6887L5.25152 16.6448ZM5.25 16.61V16.022H4.75V16.61H5.25ZM5.25 16.022C5.25 15.7 5.31461 15.3813 5.43984 15.0855L4.97939 14.8906C4.828 15.2482 4.75 15.6332 4.75 16.022H5.25ZM5.43984 15.0855L8.23598 8.47943L7.77552 8.28454L4.97939 14.8906L5.43984 15.0855ZM8.23598 8.47943C8.31798 8.2857 8.53671 8.19951 8.72322 8.28044L8.92225 7.82176C8.47706 7.62858 7.96425 7.83867 7.77552 8.28454L8.23598 8.47943ZM8.72322 8.28044C8.91138 8.36209 9.00197 8.58556 8.91931 8.78086L9.37976 8.97576C9.56782 8.53146 9.36578 8.01422 8.92225 7.82176L8.72322 8.28044ZM8.91931 8.78086L7.30298 12.5995L7.76343 12.7944L9.37976 8.97576L8.91931 8.78086ZM9.62 11.95C8.8289 11.95 8.08118 12.1388 7.42013 12.474L7.64628 12.92C8.23886 12.6194 8.90927 12.45 9.62 12.45V11.95ZM14.3767 15.7709C13.8968 13.5856 11.9497 11.95 9.62 11.95V12.45C11.7099 12.45 13.4577 13.9173 13.8883 15.8782L14.3767 15.7709ZM16.9597 15.5922C16.0119 15.216 14.9881 15.216 14.0403 15.5922L14.2247 16.0569C15.0541 15.7278 15.9459 15.7278 16.7753 16.0569L16.9597 15.5922ZM21.38 11.9499C19.0503 11.9499 17.1032 13.5856 16.6233 15.7709L17.1117 15.8782C17.5423 13.9173 19.2901 12.4499 21.38 12.4499V11.9499ZM23.5798 12.474C22.9188 12.1388 22.1711 11.9499 21.38 11.9499V12.4499C22.0907 12.4499 22.7611 12.6194 23.3537 12.9199L23.5798 12.474ZM21.6202 8.97576L23.2366 12.7944L23.697 12.5995L22.0807 8.78086L21.6202 8.97576ZM22.0777 7.82176C21.6342 8.01422 21.4322 8.53146 21.6202 8.97576L22.0807 8.78086C21.998 8.58556 22.0886 8.36209 22.2768 8.28044L22.0777 7.82176ZM21.38 13.2099C19.3863 13.2099 17.77 14.8262 17.77 16.8199H18.27C18.27 15.1023 19.6624 13.7099 21.38 13.7099V13.2099ZM24.99 16.8199C24.99 14.8262 23.3738 13.2099 21.38 13.2099V13.7099C23.0976 13.7099 24.49 15.1023 24.49 16.8199H24.99ZM21.38 20.4299C23.3738 20.4299 24.99 18.8137 24.99 16.8199H24.49C24.49 18.5376 23.0976 19.9299 21.38 19.9299V20.4299ZM17.77 16.8199C17.77 18.8137 19.3863 20.4299 21.38 20.4299V19.9299C19.6624 19.9299 18.27 18.5376 18.27 16.8199H17.77ZM6.51 16.8199C6.51 15.1023 7.9024 13.7099 9.62 13.7099V13.2099C7.62625 13.2099 6.01 14.8262 6.01 16.8199H6.51ZM9.62 19.93C7.9024 19.93 6.51 18.5376 6.51 16.8199H6.01C6.01 18.8137 7.62625 20.43 9.62 20.43V19.93ZM12.73 16.8199C12.73 18.5376 11.3376 19.93 9.62 19.93V20.43C11.6137 20.43 13.23 18.8137 13.23 16.8199H12.73ZM9.62 13.7099C11.3376 13.7099 12.73 15.1023 12.73 16.8199H13.23C13.23 14.8262 11.6137 13.2099 9.62 13.2099V13.7099Z" fill="#15396B"/>
<circle cx="15.5" cy="15.5" r="14.5" stroke="#15396B" stroke-width="2"/>
</svg>
