<svg width="31" height="31" viewBox="0 0 31 31" fill="none" xmlns="http://www.w3.org/2000/svg">
<path d="M22.3151 18.8835C21.6931 18.2443 19.9248 17.0469 18.7659 17.0469C18.4975 17.0469 18.2631 17.1065 18.0714 17.2301C17.5047 17.5923 17.053 17.8736 16.8357 17.8736C16.7164 17.8736 16.5886 17.767 16.3074 17.5241L16.2605 17.4815C15.4808 16.804 15.3146 16.6293 15.0121 16.3139L14.9354 16.233C14.88 16.1776 14.8332 16.1264 14.7863 16.0795C14.5221 15.8068 14.3304 15.6108 13.6529 14.8438L13.6231 14.8097C13.2993 14.4432 13.0862 14.2045 13.0735 14.0298C13.0607 13.8594 13.2098 13.5824 13.589 13.0668C14.0492 12.4446 14.0662 11.6776 13.6444 10.7869C13.3078 10.0838 12.7582 9.41051 12.2724 8.81818L12.2298 8.76705C11.8123 8.25568 11.3265 8 10.7854 8C10.1846 8 9.68612 8.32386 9.42195 8.49432C9.40064 8.5071 9.37934 8.52415 9.35804 8.53693C8.76578 8.91193 8.33544 9.42756 8.17353 9.9517C7.93067 10.7401 7.76876 11.7628 8.93195 13.8892C9.9375 15.7301 10.8493 16.9659 12.298 18.4531C13.6614 19.8509 14.2665 20.3026 15.6214 21.2827C17.1297 22.3736 18.5784 23 19.5925 23C20.5341 23 21.2755 23 22.3322 21.7259C23.44 20.3878 22.9798 19.5696 22.3151 18.8835Z" stroke="#15396B" stroke-width="2"/>
<circle cx="15.5" cy="15.5" r="14.5" stroke="#15396B" stroke-width="2"/>
</svg>
