<svg width="26" height="23" viewBox="0 0 26 23" fill="none" xmlns="http://www.w3.org/2000/svg">
<path fill-rule="evenodd" clip-rule="evenodd" d="M17.875 19.9704C17.875 19.4576 17.9474 19.0486 18.369 18.6685C19.4762 17.6704 21.1758 18.5352 21.1758 19.6731V19.9704C21.1758 20.8286 20.3749 21.4681 19.5447 21.4868C18.6982 21.5059 17.875 20.8127 17.875 19.9704ZM11.4258 0.644189V1.63529C11.4258 2.49088 12.9492 2.49088 12.9492 1.63529C12.9492 0.97219 13.1199 0 12.1875 0C11.7949 0 11.4258 0.28746 11.4258 0.644189ZM7.3633 2.37859C7.3633 2.67937 7.56332 2.89983 7.73094 3.06046C7.89124 3.21406 8.10549 3.46503 8.27668 3.56855C8.81301 3.89285 9.4961 3.55905 9.4961 2.97326C9.4961 2.54495 9.22993 2.39135 9.00096 2.16799C8.69557 1.87004 8.57863 1.63529 8.125 1.63529C7.68932 1.63529 7.3633 1.97447 7.3633 2.37859ZM14.8789 2.87414C14.8789 3.60944 15.5633 3.89516 16.0907 3.56118C16.3693 3.38482 17.0117 2.78701 17.0117 2.37859C17.0117 1.99691 16.6878 1.63529 16.1484 1.63529C15.7507 1.63529 14.8789 2.48603 14.8789 2.87414ZM5.68749 11.1497V11.9426C5.12319 11.9426 4.0625 11.7663 4.0625 12.7355C4.0625 13.0442 4.38455 13.4292 4.72264 13.4292H5.68749V14.2221C5.68749 15.3057 7.26173 15.2906 7.26173 14.2221V13.4292C7.86159 13.4292 8.40003 13.5303 8.69317 13.1908C9.12155 12.6946 8.74231 11.9426 8.17579 11.9426H7.26173C7.26173 11.3109 7.40695 10.3569 6.44923 10.3569C6.00789 10.3569 5.68749 10.721 5.68749 11.1497ZM5.6367 19.9704C5.6367 19.4576 5.70908 19.0486 6.13073 18.6685C7.23794 17.6704 8.9375 18.5352 8.9375 19.6731V19.9704C8.9375 20.8286 8.13664 21.4681 7.30639 21.4868C6.45994 21.5059 5.6367 20.8127 5.6367 19.9704ZM4.16407 19.0784H1.52342V8.67202H16.3008V12.7355C16.3008 13.0442 16.6228 13.4292 16.9609 13.4292H24.4765V19.0784H22.6484C22.1956 17.1817 19.703 15.8072 17.497 17.4211C17.0261 17.7656 16.5537 18.4445 16.4023 19.0784H10.4101C10.2565 18.4349 9.80715 17.796 9.3518 17.4353C8.10129 16.4446 6.55986 16.4692 5.25868 17.4211C4.79029 17.7638 4.3141 18.4499 4.16407 19.0784ZM17.875 8.67202C19.3532 8.67202 20.7722 9.49997 21.428 10.6062C21.6033 10.9018 21.9024 11.5306 21.9375 11.9426H17.875V8.67202ZM11.3242 6.34295C11.3242 5.43098 12.4516 5.27066 12.8512 5.79435C13.1181 6.14405 13.0508 6.62929 13.0508 7.13585H11.3242V6.34295ZM9.74999 6.88805V7.13585H0.914064C0.379636 7.13585 0 7.46469 0 7.82959V19.8713C0 20.8073 1.14869 20.6146 1.67577 20.6146C2.50521 20.6146 3.33464 20.6146 4.16407 20.6146C4.33097 21.3138 4.72321 21.8126 5.19171 22.2382C6.84921 23.7441 9.85944 22.9214 10.4101 20.6146H16.4023C16.5693 21.3138 16.9615 21.8126 17.43 22.2382C19.0875 23.7441 22.0977 22.9214 22.6484 20.6146C23.153 20.6146 25.2323 20.7032 25.5978 20.5195C25.8289 20.4033 26 20.2057 26 19.8713V12.5868C26 12.2301 25.6308 11.9426 25.2383 11.9426H23.5117C23.4941 11.1741 22.8087 9.73154 22.2802 9.18001C21.7652 8.64266 21.572 8.39008 20.8045 7.94412C19.7924 7.35603 18.8379 7.13585 17.5195 7.13585H14.5742C14.5742 6.22719 14.6684 5.35174 13.8517 4.61983C12.7708 3.65103 11.1723 3.8111 10.3513 4.79891C9.88533 5.35957 9.74999 5.89549 9.74999 6.88805Z" fill="#FF0000"/>
</svg>
