<svg width="17" height="23" viewBox="0 0 17 23" fill="none" xmlns="http://www.w3.org/2000/svg">
<path d="M8.30651 22.2744L8.5 22.5109L8.69349 22.2744L9.09345 21.7855C9.24382 21.6099 11.0183 19.5204 12.7602 16.8741C13.6348 15.5453 14.5046 14.0711 15.1565 12.6248C15.8064 11.183 16.25 9.74671 16.25 8.5C16.25 4.25479 12.7452 0.75 8.5 0.75C4.25575 0.75 0.75 4.20918 0.75 8.5C0.75 9.74679 1.19368 11.1803 1.8436 12.6187C2.49556 14.0616 3.36538 15.5316 4.23997 16.8575C5.74369 19.1372 7.28162 21.0188 7.75624 21.5995C7.83265 21.6929 7.88151 21.7527 7.89822 21.775L7.89804 21.7751L7.90473 21.7833L8.30651 22.2744ZM2.32143 8.45536C2.32143 5.06551 5.06777 2.27679 8.5 2.27679C11.9322 2.27679 14.6786 5.06551 14.6786 8.45536C14.6786 9.35543 14.3832 10.4272 13.9009 11.5711C13.4202 12.7113 12.7619 13.9045 12.0545 15.0421C10.7541 17.1329 9.29766 19.0194 8.50008 20.0197C7.70282 19.0182 6.24623 17.1217 4.94569 15.0256C4.23813 13.8851 3.57979 12.6904 3.09902 11.5521C2.61662 10.41 2.32143 9.34394 2.32143 8.45536Z" fill="#2AD4FC" stroke="#2AD4FC" stroke-width="0.5"/>
</svg>
