<svg width="23" height="24" viewBox="0 0 23 24" fill="none" xmlns="http://www.w3.org/2000/svg">
<path d="M22.1025 11.989C22.1025 5.87182 17.1516 0.908203 11.0513 0.908203C4.95096 0.908203 0 5.87182 0 11.989C0 15.3581 1.52507 18.3945 3.91215 20.4327C3.93425 20.4549 3.95635 20.4549 3.95635 20.477C4.15527 20.6323 4.3542 20.7876 4.57522 20.9429C4.68573 21.0094 4.77414 21.0968 4.88466 21.1855C6.71097 22.4283 8.86685 23.0924 11.0734 23.0919C13.2799 23.0924 15.4358 22.4283 17.2621 21.1855C17.3726 21.119 17.461 21.0316 17.5715 20.9637C17.7704 20.8098 17.9915 20.6545 18.1904 20.4992C18.2125 20.477 18.2346 20.477 18.2346 20.4549C20.5774 18.3932 22.1025 15.3581 22.1025 11.989ZM11.0513 21.6958C8.97362 21.6958 7.07281 21.0302 5.50353 19.9224C5.52563 19.745 5.56984 19.5689 5.61404 19.3914C5.74574 18.9105 5.9389 18.4486 6.18871 18.0174C6.43183 17.5959 6.71917 17.2188 7.07281 16.886C7.40434 16.5533 7.80219 16.2441 8.20004 16.0001C8.61998 15.7561 9.06203 15.5786 9.54829 15.4455C10.0383 15.3129 10.5437 15.2462 11.0513 15.2472C12.5579 15.2365 14.0092 15.8166 15.096 16.8639C15.6044 17.3741 16.0022 17.973 16.2896 18.6594C16.4443 19.0587 16.5548 19.4802 16.6211 19.9224C14.9899 21.0734 13.0452 21.6926 11.0513 21.6958ZM7.66957 11.4358C7.47483 10.9882 7.37689 10.5043 7.38224 10.016C7.38224 9.52936 7.47065 9.04132 7.66957 8.59764C7.8685 8.15397 8.13373 7.75605 8.46527 7.42329C8.7968 7.09054 9.19465 6.82572 9.6367 6.62606C10.0787 6.42641 10.565 6.33767 11.0513 6.33767C11.5596 6.33767 12.0238 6.42641 12.4658 6.62606C12.9079 6.82572 13.3057 7.09192 13.6373 7.42329C13.9688 7.75605 14.234 8.15535 14.4329 8.59764C14.6319 9.04132 14.7203 9.52936 14.7203 10.016C14.7203 10.5262 14.6319 10.9921 14.4329 11.4344C14.241 11.8715 13.9713 12.2699 13.6373 12.6101C13.2982 12.945 12.9012 13.2151 12.4658 13.4074C11.5525 13.7841 10.5279 13.7841 9.6146 13.4074C9.17919 13.2151 8.78226 12.945 8.44316 12.6101C8.10861 12.2749 7.84542 11.8762 7.66957 11.4358ZM17.9251 18.7925C17.9251 18.7481 17.903 18.7259 17.903 18.6815C17.6857 17.9875 17.3653 17.3303 16.9526 16.7321C16.5396 16.1296 16.0321 15.5981 15.4497 15.1585C15.0049 14.8226 14.5228 14.5398 14.013 14.3155C14.2449 14.1619 14.4598 13.9839 14.654 13.7845C14.9835 13.458 15.2729 13.093 15.516 12.6975C16.0055 11.8903 16.2583 10.9609 16.2454 10.016C16.2522 9.31656 16.1168 8.62305 15.8475 7.97789C15.5816 7.35624 15.1989 6.79183 14.7203 6.31549C14.2424 5.84413 13.6799 5.46778 13.0626 5.2063C12.4187 4.93648 11.7269 4.80109 11.0292 4.80838C10.3314 4.80153 9.63949 4.9374 8.99573 5.20769C8.37306 5.46861 7.80925 5.85294 7.33804 6.33767C6.86842 6.81683 6.49344 7.38089 6.23291 8.00007C5.9636 8.64523 5.82823 9.33874 5.83507 10.0382C5.83507 10.5262 5.90137 10.9921 6.03399 11.4344C6.1666 11.9002 6.34342 12.3217 6.58655 12.7197C6.80758 13.119 7.11701 13.4739 7.44855 13.8067C7.64747 14.0063 7.8685 14.1824 8.11162 14.3377C7.60028 14.5679 7.118 14.8584 6.67496 15.2029C6.1003 15.6465 5.59194 16.1776 5.17199 16.7543C4.75516 17.35 4.43443 18.0079 4.22158 18.7037C4.19948 18.7481 4.19948 18.7925 4.19948 18.8146C2.45338 17.0413 1.37036 14.6483 1.37036 11.989C1.37036 6.64825 5.72455 2.28221 11.0513 2.28221C16.378 2.28221 20.7322 6.64825 20.7322 11.989C20.7293 14.5401 19.72 16.9862 17.9251 18.7925Z" fill="#15396B"/>
</svg>
