<svg width="43" height="28" viewBox="0 0 43 28" fill="none" xmlns="http://www.w3.org/2000/svg">
<path fill-rule="evenodd" clip-rule="evenodd" d="M34.2298 1.09885C34.8408 0.833713 35.5484 1.1203 35.8103 1.73896L41.2195 14.5184L41.2195 14.5185C41.4871 15.1506 41.625 15.8313 41.625 16.5187V17.6563C41.625 17.6933 41.6234 17.7299 41.6202 17.7661C41.6234 17.8645 41.625 17.9633 41.625 18.0625C41.625 22.9985 37.6236 27 32.6875 27C28.1128 27 24.3408 23.5629 23.8131 19.1302C22.2194 18.2767 20.4056 18.2767 18.8119 19.1302C18.2842 23.5629 14.5122 27 9.9375 27C5.00145 27 1 22.9985 1 18.0625C1 17.9633 1.00162 17.8645 1.00482 17.7661C1.00163 17.7299 1 17.6933 1 17.6563V16.5187C1 15.8312 1.13794 15.1505 1.40551 14.5185L6.81469 1.73896C7.07656 1.1203 7.78416 0.833713 8.39517 1.09885C9.00619 1.36399 9.28923 2.08045 9.02737 2.69911L5.90049 10.0865C7.1131 9.47157 8.48482 9.125 9.9375 9.125C14.2124 9.125 17.7863 12.1263 18.667 16.1367C20.386 15.4545 22.239 15.4544 23.958 16.1367C24.8387 12.1263 28.4126 9.125 32.6875 9.125C34.1402 9.125 35.5119 9.47158 36.7245 10.0866L33.5976 2.69911C33.3358 2.08045 33.6188 1.36399 34.2298 1.09885ZM9.9375 11.5625C6.34766 11.5625 3.4375 14.4726 3.4375 18.0625C3.4375 21.6524 6.34766 24.5625 9.9375 24.5625C13.5273 24.5625 16.4375 21.6524 16.4375 18.0625C16.4375 14.4726 13.5273 11.5625 9.9375 11.5625ZM26.1875 18.0625C26.1875 14.4726 29.0977 11.5625 32.6875 11.5625C36.2773 11.5625 39.1875 14.4726 39.1875 18.0625C39.1875 21.6524 36.2773 24.5625 32.6875 24.5625C29.0977 24.5625 26.1875 21.6524 26.1875 18.0625Z" fill="#15396B"/>
<path d="M35.8103 1.73896L35.3498 1.93385V1.93385L35.8103 1.73896ZM34.2298 1.09885L34.0308 0.640173V0.640174L34.2298 1.09885ZM41.2195 14.5184L40.759 14.7133L40.7593 14.7139L41.2195 14.5184ZM41.2195 14.5185L41.68 14.3236L41.6797 14.323L41.2195 14.5185ZM41.6202 17.7661L41.1221 17.7222C41.1203 17.7422 41.1198 17.7623 41.1204 17.7824L41.6202 17.7661ZM23.8131 19.1302L24.3096 19.0711C24.2903 18.909 24.1931 18.7665 24.0492 18.6894L23.8131 19.1302ZM18.8119 19.1302L18.5758 18.6894C18.4319 18.7665 18.3347 18.909 18.3154 19.0711L18.8119 19.1302ZM1.00482 17.7661L1.50456 17.7824C1.50521 17.7623 1.50465 17.7422 1.50289 17.7222L1.00482 17.7661ZM1.40551 14.5185L1.86595 14.7134L1.86596 14.7134L1.40551 14.5185ZM6.81469 1.73896L6.35424 1.54406V1.54406L6.81469 1.73896ZM8.39517 1.09885L8.59421 0.640173V0.640173L8.39517 1.09885ZM9.02737 2.69911L8.56692 2.50421V2.50421L9.02737 2.69911ZM5.90049 10.0865L5.44004 9.89165C5.35821 10.085 5.40586 10.3088 5.55933 10.4521C5.71281 10.5953 5.93941 10.6274 6.12664 10.5325L5.90049 10.0865ZM18.667 16.1367L18.1786 16.2439C18.2101 16.3872 18.3029 16.5094 18.4324 16.5782C18.5619 16.647 18.7151 16.6555 18.8514 16.6014L18.667 16.1367ZM23.958 16.1367L23.7736 16.6014C23.9099 16.6555 24.0631 16.647 24.1926 16.5782C24.3221 16.5094 24.4149 16.3872 24.4464 16.2439L23.958 16.1367ZM36.7245 10.0866L36.4984 10.5325C36.6856 10.6274 36.9122 10.5953 37.0657 10.4521C37.2192 10.3088 37.2668 10.085 37.185 9.89166L36.7245 10.0866ZM33.5976 2.69911L33.1372 2.894V2.89401L33.5976 2.69911ZM36.2708 1.54406C35.9022 0.673263 34.9005 0.262783 34.0308 0.640173L34.4289 1.55753C34.7812 1.40464 35.1947 1.56733 35.3498 1.93385L36.2708 1.54406ZM41.6799 14.3235L36.2708 1.54406L35.3498 1.93385L40.759 14.7133L41.6799 14.3235ZM41.6797 14.323L41.6797 14.3229L40.7593 14.7139L40.7593 14.714L41.6797 14.323ZM42.125 16.5187C42.125 15.7645 41.9737 15.0175 41.68 14.3236L40.7591 14.7134C41.0005 15.2837 41.125 15.8981 41.125 16.5187H42.125ZM42.125 17.6563V16.5187H41.125V17.6563H42.125ZM42.1182 17.8101C42.1227 17.7593 42.125 17.708 42.125 17.6563H41.125C41.125 17.6786 41.124 17.7006 41.1221 17.7222L42.1182 17.8101ZM42.125 18.0625C42.125 17.9579 42.1233 17.8537 42.1199 17.7498L41.1204 17.7824C41.1235 17.8754 41.125 17.9688 41.125 18.0625H42.125ZM32.6875 27.5C37.8997 27.5 42.125 23.2747 42.125 18.0625H41.125C41.125 22.7224 37.3474 26.5 32.6875 26.5V27.5ZM23.3166 19.1893C23.8739 23.8705 27.8565 27.5 32.6875 27.5V26.5C28.3691 26.5 24.8077 23.2553 24.3096 19.0711L23.3166 19.1893ZM19.0479 19.571C20.4942 18.7965 22.1308 18.7965 23.5771 19.571L24.0492 18.6894C22.308 17.757 20.317 17.757 18.5758 18.6894L19.0479 19.571ZM9.9375 27.5C14.7685 27.5 18.7511 23.8705 19.3084 19.1893L18.3154 19.0711C17.8173 23.2553 14.2559 26.5 9.9375 26.5V27.5ZM0.5 18.0625C0.5 23.2747 4.7253 27.5 9.9375 27.5V26.5C5.27759 26.5 1.5 22.7224 1.5 18.0625H0.5ZM0.505087 17.7498C0.501704 17.8537 0.5 17.9579 0.5 18.0625H1.5C1.5 17.9687 1.50153 17.8754 1.50456 17.7824L0.505087 17.7498ZM1.50289 17.7222C1.50098 17.7006 1.5 17.6786 1.5 17.6563H0.5C0.5 17.708 0.502277 17.7593 0.506756 17.8101L1.50289 17.7222ZM1.5 17.6563V16.5187H0.5V17.6563H1.5ZM1.5 16.5187C1.5 15.898 1.62455 15.2836 1.86595 14.7134L0.945063 14.3236C0.651337 15.0174 0.5 15.7644 0.5 16.5187H1.5ZM1.86596 14.7134L7.27515 1.93386L6.35424 1.54406L0.945054 14.3236L1.86596 14.7134ZM7.27515 1.93386C7.43028 1.56733 7.84381 1.40464 8.19614 1.55753L8.59421 0.640173C7.72451 0.262783 6.72283 0.673265 6.35424 1.54406L7.27515 1.93386ZM8.19614 1.55753C8.55179 1.71186 8.72338 2.13455 8.56692 2.50421L9.48782 2.894C9.85508 2.02634 9.46058 1.01612 8.59421 0.640173L8.19614 1.55753ZM8.56692 2.50421L5.44004 9.89165L6.36094 10.2814L9.48782 2.894L8.56692 2.50421ZM9.9375 8.625C8.40445 8.625 6.95542 8.99092 5.67434 9.64062L6.12664 10.5325C7.27077 9.95223 8.5652 9.625 9.9375 9.625V8.625ZM19.1554 16.0294C18.2253 11.7946 14.4522 8.625 9.9375 8.625V9.625C13.9726 9.625 17.3472 12.458 18.1786 16.2439L19.1554 16.0294ZM24.1425 15.6719C22.305 14.9427 20.32 14.9427 18.4826 15.672L18.8514 16.6014C20.452 15.9662 22.173 15.9662 23.7736 16.6014L24.1425 15.6719ZM32.6875 8.625C28.1729 8.625 24.3997 11.7946 23.4697 16.0294L24.4464 16.2439C25.2778 12.458 28.6524 9.625 32.6875 9.625V8.625ZM36.9507 9.64063C35.6696 8.99092 34.2206 8.625 32.6875 8.625V9.625C34.0598 9.625 35.3542 9.95224 36.4984 10.5325L36.9507 9.64063ZM33.1372 2.89401L36.2641 10.2815L37.185 9.89166L34.0581 2.50421L33.1372 2.89401ZM34.0308 0.640174C33.1644 1.01612 32.7699 2.02635 33.1372 2.894L34.0581 2.50421C33.9016 2.13455 34.0732 1.71186 34.4289 1.55753L34.0308 0.640174ZM3.9375 18.0625C3.9375 14.7488 6.6238 12.0625 9.9375 12.0625V11.0625C6.07151 11.0625 2.9375 14.1965 2.9375 18.0625H3.9375ZM9.9375 24.0625C6.6238 24.0625 3.9375 21.3762 3.9375 18.0625H2.9375C2.9375 21.9285 6.07151 25.0625 9.9375 25.0625V24.0625ZM15.9375 18.0625C15.9375 21.3762 13.2512 24.0625 9.9375 24.0625V25.0625C13.8035 25.0625 16.9375 21.9285 16.9375 18.0625H15.9375ZM9.9375 12.0625C13.2512 12.0625 15.9375 14.7488 15.9375 18.0625H16.9375C16.9375 14.1965 13.8035 11.0625 9.9375 11.0625V12.0625ZM32.6875 11.0625C28.8215 11.0625 25.6875 14.1965 25.6875 18.0625H26.6875C26.6875 14.7488 29.3738 12.0625 32.6875 12.0625V11.0625ZM39.6875 18.0625C39.6875 14.1965 36.5535 11.0625 32.6875 11.0625V12.0625C36.0012 12.0625 38.6875 14.7488 38.6875 18.0625H39.6875ZM32.6875 25.0625C36.5535 25.0625 39.6875 21.9285 39.6875 18.0625H38.6875C38.6875 21.3762 36.0012 24.0625 32.6875 24.0625V25.0625ZM25.6875 18.0625C25.6875 21.9285 28.8215 25.0625 32.6875 25.0625V24.0625C29.3738 24.0625 26.6875 21.3762 26.6875 18.0625H25.6875Z" fill="#15396B"/>
</svg>
