<svg width="23" height="15" viewBox="0 0 23 15" fill="none" xmlns="http://www.w3.org/2000/svg">
<path fill-rule="evenodd" clip-rule="evenodd" d="M18.1772 1.0511C18.4931 0.914042 18.8589 1.06219 18.9942 1.38198L21.7904 7.98796L21.7904 7.98802C21.9287 8.31477 22 8.66663 22 9.022V9.61001C22 9.62907 21.9991 9.64792 21.9975 9.66655C21.9992 9.71748 22 9.76861 22 9.81994C22 12.3715 19.9316 14.4399 17.38 14.4399C15.0153 14.4399 13.0655 12.6633 12.7927 10.372C11.9688 9.93081 11.0312 9.93079 10.2074 10.372C9.93453 12.6633 7.98475 14.4399 5.62 14.4399C3.06844 14.4399 1 12.3715 1 9.81995C1 9.76869 1.00083 9.71763 1.00249 9.66677C1.00084 9.64808 1 9.62914 1 9.61001V9.022C1 8.66659 1.07131 8.31473 1.20962 7.98802L4.00575 1.38199C4.14111 1.06219 4.50689 0.914042 4.82273 1.0511C5.13858 1.18815 5.28489 1.55851 5.14953 1.87831L3.5332 5.69698C4.16002 5.3791 4.86909 5.19995 5.62 5.19995C7.82982 5.19995 9.67727 6.75144 10.1325 8.82455C11.0211 8.47191 11.9789 8.47189 12.8675 8.82455C13.3227 6.75144 15.1702 5.19995 17.38 5.19995C18.1309 5.19995 18.84 5.37909 19.4668 5.69696L17.8504 1.87831C17.7151 1.55851 17.8614 1.18815 18.1772 1.0511ZM14.02 9.81994C14.02 7.96426 15.5243 6.45994 17.38 6.45994C19.2357 6.45994 20.74 7.96426 20.74 9.81994C20.74 11.6756 19.2357 13.1799 17.38 13.1799C15.5243 13.1799 14.02 11.6756 14.02 9.81994ZM5.62 6.45994C3.76433 6.45994 2.26 7.96426 2.26 9.81995C2.26 11.6756 3.76433 13.18 5.62 13.18C7.47567 13.18 8.98 11.6756 8.98 9.81995C8.98 7.96426 7.47567 6.45994 5.62 6.45994Z" fill="#15396B"/>
<path d="M18.9942 1.38198L18.764 1.47943L18.764 1.47943L18.9942 1.38198ZM18.1772 1.0511L18.2768 1.28044L18.2768 1.28044L18.1772 1.0511ZM21.7904 7.98796L21.5601 8.08542L21.5619 8.08949L21.7904 7.98796ZM21.7904 7.98802L22.0206 7.89054L22.0188 7.88648L21.7904 7.98802ZM21.9975 9.66655L21.7485 9.64466C21.7476 9.65465 21.7473 9.66468 21.7476 9.6747L21.9975 9.66655ZM12.7927 10.372L13.0409 10.3425C13.0313 10.2614 12.9826 10.1902 12.9107 10.1516L12.7927 10.372ZM10.2074 10.372L10.0893 10.1516C10.0174 10.1901 9.96876 10.2614 9.95911 10.3424L10.2074 10.372ZM1.00249 9.66677L1.25236 9.67491C1.25269 9.66487 1.25241 9.65482 1.25152 9.64481L1.00249 9.66677ZM1.20962 7.98802L1.43984 8.08548L1.43984 8.08546L1.20962 7.98802ZM4.00575 1.38199L3.77552 1.28454L3.77552 1.28454L4.00575 1.38199ZM4.82273 1.0511L4.92225 0.821759L4.92225 0.821759L4.82273 1.0511ZM5.14953 1.87831L4.91931 1.78086L4.91931 1.78086L5.14953 1.87831ZM3.5332 5.69698L3.30298 5.59954C3.26206 5.6962 3.28589 5.80813 3.36262 5.87975C3.43936 5.95137 3.55266 5.96743 3.64628 5.91995L3.5332 5.69698ZM10.1325 8.82455L9.88831 8.87817C9.90404 8.9498 9.95043 9.01091 10.0152 9.04532C10.0799 9.07973 10.1566 9.08397 10.2247 9.05692L10.1325 8.82455ZM12.8675 8.82455L12.7753 9.05692C12.8435 9.08397 12.9201 9.07973 12.9848 9.04532C13.0496 9.01091 13.096 8.9498 13.1117 8.87817L12.8675 8.82455ZM19.4668 5.69696L19.3537 5.91993C19.4473 5.96741 19.5606 5.95135 19.6374 5.87973C19.7141 5.80811 19.7379 5.69618 19.697 5.59951L19.4668 5.69696ZM17.8504 1.87831L18.0807 1.78086L18.0807 1.78086L17.8504 1.87831ZM19.2245 1.28454C19.0357 0.838667 18.5229 0.628577 18.0777 0.82176L18.2768 1.28044C18.4633 1.19951 18.682 1.2857 18.764 1.47943L19.2245 1.28454ZM22.0206 7.89051L19.2245 1.28454L18.764 1.47943L21.5601 8.08541L22.0206 7.89051ZM22.0188 7.88648L22.0188 7.88643L21.5619 8.08949L21.5619 8.08955L22.0188 7.88648ZM22.25 9.022C22.25 8.63323 22.172 8.24823 22.0206 7.89055L21.5602 8.08548C21.6854 8.38131 21.75 8.70002 21.75 9.022H22.25ZM22.25 9.61001V9.022H21.75V9.61001H22.25ZM22.2465 9.68843C22.2488 9.66254 22.25 9.63638 22.25 9.61001H21.75C21.75 9.62176 21.7495 9.63331 21.7485 9.64466L22.2465 9.68843ZM22.25 9.81994C22.25 9.76588 22.2491 9.71204 22.2474 9.6584L21.7476 9.6747C21.7492 9.72292 21.75 9.77133 21.75 9.81994H22.25ZM17.38 14.6899C20.0696 14.6899 22.25 12.5096 22.25 9.81994H21.75C21.75 12.2334 19.7935 14.1899 17.38 14.1899V14.6899ZM12.5444 10.4016C12.832 12.8171 14.8871 14.6899 17.38 14.6899V14.1899C15.1434 14.1899 13.299 12.5095 13.0409 10.3425L12.5444 10.4016ZM10.3254 10.5924C11.0755 10.1907 11.9245 10.1907 12.6746 10.5924L12.9107 10.1516C12.0131 9.67094 10.9869 9.67092 10.0893 10.1516L10.3254 10.5924ZM5.62 14.6899C8.11289 14.6899 10.168 12.8171 10.4556 10.4015L9.95911 10.3424C9.70108 12.5095 7.85661 14.1899 5.62 14.1899V14.6899ZM0.75 9.81995C0.75 12.5096 2.93037 14.6899 5.62 14.6899V14.1899C3.20651 14.1899 1.25 12.2334 1.25 9.81995H0.75ZM0.752624 9.65863C0.750879 9.7122 0.75 9.76598 0.75 9.81995H1.25C1.25 9.77141 1.25079 9.72306 1.25236 9.67491L0.752624 9.65863ZM1.25152 9.64481C1.25052 9.63341 1.25 9.6218 1.25 9.61001H0.75C0.75 9.63649 0.751166 9.66275 0.753458 9.68874L1.25152 9.64481ZM1.25 9.61001V9.022H0.75V9.61001H1.25ZM1.25 9.022C1.25 8.69999 1.31461 8.38129 1.43984 8.08548L0.979394 7.89056C0.828003 8.24818 0.75 8.63318 0.75 9.022H1.25ZM1.43984 8.08546L4.23598 1.47943L3.77552 1.28454L0.979389 7.89057L1.43984 8.08546ZM4.23598 1.47943C4.31798 1.2857 4.53671 1.19951 4.72322 1.28044L4.92225 0.821759C4.47706 0.628577 3.96425 0.838669 3.77552 1.28454L4.23598 1.47943ZM4.72322 1.28044C4.91138 1.36209 5.00197 1.58556 4.91931 1.78086L5.37976 1.97576C5.56782 1.53146 5.36578 1.01422 4.92225 0.821759L4.72322 1.28044ZM4.91931 1.78086L3.30298 5.59954L3.76343 5.79443L5.37976 1.97576L4.91931 1.78086ZM5.62 4.94995C4.8289 4.94995 4.08118 5.13877 3.42013 5.47402L3.64628 5.91995C4.23886 5.61943 4.90927 5.44995 5.62 5.44995V4.94995ZM10.3767 8.77093C9.89681 6.58558 7.94971 4.94995 5.62 4.94995V5.44995C7.70993 5.44995 9.45773 6.9173 9.88831 8.87817L10.3767 8.77093ZM12.9597 8.59218C12.0119 8.21601 10.9881 8.21603 10.0403 8.59218L10.2247 9.05692C11.0541 8.72778 11.9459 8.72777 12.7753 9.05692L12.9597 8.59218ZM17.38 4.94995C15.0503 4.94995 13.1032 6.58558 12.6233 8.77093L13.1117 8.87817C13.5423 6.9173 15.2901 5.44995 17.38 5.44995V4.94995ZM19.5798 5.474C18.9188 5.13876 18.1711 4.94995 17.38 4.94995V5.44995C18.0907 5.44995 18.7611 5.61942 19.3537 5.91993L19.5798 5.474ZM17.6202 1.97576L19.2366 5.79441L19.697 5.59951L18.0807 1.78086L17.6202 1.97576ZM18.0777 0.82176C17.6342 1.01422 17.4322 1.53146 17.6202 1.97576L18.0807 1.78086C17.998 1.58556 18.0886 1.36209 18.2768 1.28044L18.0777 0.82176ZM17.38 6.20994C15.3863 6.20994 13.77 7.82619 13.77 9.81994H14.27C14.27 8.10233 15.6624 6.70994 17.38 6.70994V6.20994ZM20.99 9.81994C20.99 7.82619 19.3738 6.20994 17.38 6.20994V6.70994C19.0976 6.70994 20.49 8.10233 20.49 9.81994H20.99ZM17.38 13.4299C19.3738 13.4299 20.99 11.8137 20.99 9.81994H20.49C20.49 11.5376 19.0976 12.9299 17.38 12.9299V13.4299ZM13.77 9.81994C13.77 11.8137 15.3863 13.4299 17.38 13.4299V12.9299C15.6624 12.9299 14.27 11.5376 14.27 9.81994H13.77ZM2.51 9.81995C2.51 8.10234 3.9024 6.70994 5.62 6.70994V6.20994C3.62625 6.20994 2.01 7.82619 2.01 9.81995H2.51ZM5.62 12.93C3.9024 12.93 2.51 11.5376 2.51 9.81995H2.01C2.01 11.8137 3.62625 13.43 5.62 13.43V12.93ZM8.73 9.81995C8.73 11.5376 7.3376 12.93 5.62 12.93V13.43C7.61374 13.43 9.23 11.8137 9.23 9.81995H8.73ZM5.62 6.70994C7.3376 6.70994 8.73 8.10234 8.73 9.81995H9.23C9.23 7.82619 7.61374 6.20994 5.62 6.20994V6.70994Z" fill="#15396B"/>
</svg>
